<svg width="68" height="95" viewBox="0 0 68 95" fill="none" xmlns="http://www.w3.org/2000/svg">
<mask id="mask0_7_77" style="mask-type:luminance" maskUnits="userSpaceOnUse" x="0" y="0" width="68" height="95">
<path d="M67.2105 0H0.135132V95H67.2105V0Z" fill="white"/>
</mask>
<g mask="url(#mask0_7_77)">
<path d="M67.2105 90.4482C67.2105 92.9272 65.2041 94.942 62.725 94.942L4.72014 95.0083C2.74684 95.0083 1.07203 93.7398 0.466778 91.9737C0.309246 91.5177 0.226334 91.0368 0.226334 90.5311L0.135132 6.88167C0.135132 4.40261 2.14159 2.38786 4.62064 2.38786L57.883 2.32982L62.6255 2.32153C65.1046 2.32153 67.1193 4.32799 67.1193 6.80704L67.2105 90.4482Z" fill="url(#paint0_linear_7_77)"/>
<path d="M61.1995 89.9673L6.23746 90.0254C4.90258 90.0254 3.82473 88.9475 3.82473 87.6126L3.74182 9.76703C3.74182 8.43215 4.81967 7.3543 6.15455 7.3543L61.1083 7.29626C62.4431 7.29626 63.521 8.37411 63.521 9.70899L63.6039 87.5546C63.6122 88.8812 62.5343 89.9673 61.1995 89.9673Z" fill="white"/>
<path d="M53.4804 13.7136L13.3927 13.7633C12.0661 13.7633 10.9799 12.6855 10.9799 11.3589L10.9716 4.67623C10.9716 3.34964 12.0495 2.2635 13.3761 2.2635L53.4721 2.22205C54.7987 2.22205 55.8848 3.2999 55.8848 4.62648L55.8931 11.3091C55.8848 12.6357 54.807 13.7136 53.4804 13.7136ZM13.3761 3.49059C12.7294 3.49059 12.1987 4.02123 12.1987 4.66793L12.207 11.3506C12.207 11.9973 12.7377 12.5279 13.3844 12.5279L53.4804 12.4865C54.1271 12.4865 54.6577 11.9559 54.6577 11.3091L54.6494 4.62648C54.6494 3.97977 54.1188 3.44914 53.4721 3.44914L13.3761 3.49059Z" fill="url(#paint1_linear_7_77)"/>
<path d="M52.3445 5.11564L14.91 5.1571C14.4954 5.1571 14.1638 4.82545 14.1638 4.41089V0.787659C14.1638 0.373102 14.4954 0.0414557 14.91 0.0414557L52.3362 0C52.7508 0 53.0824 0.331646 53.0824 0.746203V4.36944C53.0907 4.78399 52.7591 5.11564 52.3445 5.11564Z" fill="url(#paint2_linear_7_77)"/>
<path d="M14.9431 5.15714L52.3113 5.11568C52.7425 5.11568 53.0907 4.76746 53.0907 4.33632V2.56201L14.1555 2.60347V4.37777C14.1555 4.80891 14.512 5.15714 14.9431 5.15714Z" fill="#FF4A4A" fill-opacity="0.76"/>
<path d="M28.0763 81.2118L24.8428 61.6447L22.2228 70.1597L14.7276 70.168C14.2715 70.168 13.9067 69.8031 13.9067 69.3471C13.9067 68.8911 14.2715 68.5263 14.7276 68.5263L21.0205 68.518L25.3402 54.4977L28.5738 74.1145L32.7691 60.6414L34.9994 67.0256L40.0239 54.8459L44.9074 74.1643L46.748 68.0205L52.1372 68.0123C52.5932 68.0123 52.9581 68.3771 52.9581 68.8331C52.9581 69.2891 52.5932 69.6539 52.1372 69.6539L47.9668 69.6622L44.7747 80.3163L39.6508 60.0528L34.8668 71.6355L32.852 65.8731L28.0763 81.2118Z" fill="#FF4A4A"/>
<path d="M22.5211 43.4871L11.983 43.4954C10.2834 43.4954 8.89048 42.1107 8.89048 40.411L8.8739 25.6777C8.8739 23.978 10.2585 22.5851 11.9582 22.5851L22.4962 22.5768C24.1959 22.5768 25.5888 23.9614 25.5888 25.6611L25.6054 40.3945C25.6054 42.0942 24.2208 43.4788 22.5211 43.4871ZM11.9499 23.4805C10.7394 23.4805 9.76104 24.4672 9.76104 25.6777L9.77764 40.411C9.77764 41.6216 10.7642 42.5999 11.9748 42.5999L22.5128 42.5916C23.7233 42.5916 24.7017 41.605 24.7017 40.3945L24.6851 25.6611C24.6851 24.4506 23.6984 23.4722 22.4879 23.4722L11.9499 23.4805Z" fill="url(#paint3_linear_7_77)"/>
<path d="M17.2398 40.6598C22.2228 40.6515 23.7732 37.7745 23.7732 37.7745C23.5493 37.4926 23.2674 37.2439 22.886 36.9951C21.576 36.1411 20.5231 35.7763 20.0836 35.4115C19.6359 35.055 19.3872 34.5327 19.3872 34.5327L19.1136 34.6985C19.1136 34.6985 18.9477 34.1264 19.039 33.2558C19.039 33.2558 19.4286 33.1563 19.7188 31.838C20.1831 31.9292 20.7303 30.7519 20.4733 30.3207C20.3075 30.0388 20.1085 30.0637 19.9676 30.1301C20.1085 29.5414 20.7469 26.283 17.2315 26.283C13.716 26.283 14.3544 29.5414 14.5037 30.1301C14.3627 30.0637 14.1638 30.0388 13.9979 30.3207C13.7409 30.7519 14.2964 31.9292 14.7607 31.838C15.0509 33.1563 15.4489 33.2475 15.4489 33.2475C15.5484 34.1098 15.3743 34.6902 15.3743 34.6902L15.1007 34.5244C15.1007 34.5244 14.8519 35.0384 14.4042 35.4032C13.9565 35.768 12.9118 36.1411 11.6018 36.9951C11.2204 37.2439 10.9302 37.4926 10.7146 37.7745C10.7063 37.7911 12.2651 40.6681 17.2398 40.6598Z" fill="url(#paint4_linear_7_77)"/>
<path d="M50.0561 27.2779L29.7677 27.3028C29.3863 27.3028 29.0795 26.996 29.0795 26.6146V26.4986C29.0795 26.1172 29.3863 25.8104 29.7677 25.8104L50.0561 25.7855C50.4375 25.7855 50.7443 26.0923 50.7443 26.4737V26.5898C50.7443 26.9712 50.4292 27.2779 50.0561 27.2779Z" fill="url(#paint5_linear_7_77)"/>
<path d="M42.5941 31.1416L29.7677 31.1582C29.3863 31.1582 29.0795 30.8514 29.0795 30.47V30.3539C29.0795 29.9725 29.3863 29.6658 29.7677 29.6658L42.5941 29.6492C42.9755 29.6492 43.2823 29.9559 43.2823 30.3373V30.4534C43.2823 30.8348 42.9755 31.1416 42.5941 31.1416Z" fill="url(#paint6_linear_7_77)"/>
<path opacity="0.6" d="M57.0539 35.7348L29.776 35.768C29.3946 35.768 29.0878 35.4612 29.0878 35.0798V34.9638C29.0878 34.5824 29.3946 34.2756 29.776 34.2756L57.0539 34.2424C57.4353 34.2424 57.742 34.5492 57.742 34.9306V35.0467C57.7338 35.4281 57.427 35.7348 57.0539 35.7348Z" fill="url(#paint7_linear_7_77)"/>
<path opacity="0.6" d="M56.4651 48.6441L10.9633 48.6939C10.5736 48.6939 10.2502 48.3788 10.2502 47.9808V47.9145C10.2502 47.5248 10.5653 47.2015 10.9633 47.2015L56.4651 47.1517C56.8548 47.1517 57.1781 47.4668 57.1781 47.8648V47.9311C57.1781 48.3291 56.8548 48.6441 56.4651 48.6441Z" fill="url(#paint8_linear_7_77)"/>
<path opacity="0.6" d="M57.0539 40.2452L29.776 40.2784C29.3946 40.2784 29.0878 39.9716 29.0878 39.5902V39.4741C29.0878 39.0927 29.3946 38.786 29.776 38.786L57.0539 38.7528C57.4353 38.7528 57.742 39.0596 57.742 39.441V39.5571C57.742 39.9384 57.4353 40.2452 57.0539 40.2452Z" fill="url(#paint9_linear_7_77)"/>
</g>
<defs>
<linearGradient id="paint0_linear_7_77" x1="-17" y1="38" x2="76.4992" y2="62.5782" gradientUnits="userSpaceOnUse">
<stop stop-color="#FF4A4A"/>
<stop offset="0.666667" stop-color="#FF4A4A" stop-opacity="0.76"/>
<stop offset="1" stop-color="#FF4A4A" stop-opacity="0.81"/>
</linearGradient>
<linearGradient id="paint1_linear_7_77" x1="-5.08991" y1="-21.375" x2="55.8866" y2="7.98973" gradientUnits="userSpaceOnUse">
<stop stop-color="#FF4A4A" stop-opacity="0.61"/>
<stop offset="1" stop-color="#FF4A4A"/>
</linearGradient>
<linearGradient id="paint2_linear_7_77" x1="14.1543" y1="2.57952" x2="53.0901" y2="2.57952" gradientUnits="userSpaceOnUse">
<stop stop-color="#FB9090"/>
<stop offset="1" stop-color="#FF4A4A"/>
</linearGradient>
<linearGradient id="paint3_linear_7_77" x1="14.27" y1="29.2075" x2="24.0506" y2="41.8334" gradientUnits="userSpaceOnUse">
<stop stop-color="#FF4A4A"/>
<stop offset="1" stop-color="#FF4A4A" stop-opacity="0.63"/>
</linearGradient>
<linearGradient id="paint4_linear_7_77" x1="13.2093" y1="30.0293" x2="22.9899" y2="42.6553" gradientUnits="userSpaceOnUse">
<stop stop-color="#FF4A4A" stop-opacity="0.49"/>
<stop offset="0.290625" stop-color="#FF4A4A" stop-opacity="0.707281"/>
<stop offset="0.629166" stop-color="#FF4A4A" stop-opacity="0.81"/>
<stop offset="1" stop-color="#FF4A4A"/>
</linearGradient>
<linearGradient id="paint5_linear_7_77" x1="29.0807" y1="26.551" x2="50.74" y2="26.564" gradientUnits="userSpaceOnUse">
<stop stop-color="#FF4A4A"/>
<stop offset="1" stop-color="#FF4A4A"/>
</linearGradient>
<linearGradient id="paint6_linear_7_77" x1="29.0847" y1="30.4037" x2="43.2814" y2="30.4037" gradientUnits="userSpaceOnUse">
<stop stop-color="#FF4A4A" stop-opacity="0.76"/>
<stop offset="1" stop-color="#FF4A4A"/>
</linearGradient>
<linearGradient id="paint7_linear_7_77" x1="29.0894" y1="35.0098" x2="57.7374" y2="35.0098" gradientUnits="userSpaceOnUse">
<stop stop-color="#FF4A4A"/>
<stop offset="1" stop-color="#FF4A4A" stop-opacity="0.82"/>
</linearGradient>
<linearGradient id="paint8_linear_7_77" x1="10.2498" y1="47.9272" x2="57.1758" y2="47.9272" gradientUnits="userSpaceOnUse">
<stop stop-color="#FF4A4A"/>
<stop offset="1" stop-color="#FF4A4A" stop-opacity="0.81"/>
</linearGradient>
<linearGradient id="paint9_linear_7_77" x1="29.094" y1="39.5191" x2="57.742" y2="39.5191" gradientUnits="userSpaceOnUse">
<stop stop-color="#FF4A4A"/>
<stop offset="1" stop-color="#FF4A4A" stop-opacity="0.72"/>
</linearGradient>
</defs>
</svg>
