<svg width="80" height="80" viewBox="0 0 80 80" fill="none" xmlns="http://www.w3.org/2000/svg">
<g clip-path="url(#clip0_8_265)">
<path d="M80 40C80 17.9121 62.0879 0 40 0C17.9121 0 0 17.9121 0 40C0 62.0879 17.9121 80 40 80C62.0879 80 80 62.0879 80 40Z" fill="#FF4A4A"/>
<path d="M40.0001 79C51.3181 79 61.5398 74.2922 68.811 66.7469C68.3596 64.3124 67.9082 62.0875 67.4728 60.7171C66.1024 56.3156 54.3813 52.7686 39.9356 52.7686C25.4898 52.7686 13.8977 56.3156 12.5273 60.7171C12.1081 62.0875 11.6405 64.2963 11.1891 66.7469C18.4603 74.2922 28.682 79 40.0001 79Z" fill="#E2A379"/>
<path d="M67.4729 60.717C66.3926 57.2668 58.944 54.3325 48.803 53.2362L40.0001 67.9883L31.181 53.2039C21.0238 54.3003 13.5914 57.2346 12.5111 60.7009C12.092 62.0713 11.6244 64.2801 11.173 66.7308C18.4442 74.2922 28.6659 78.9839 39.9839 78.9839C51.302 78.9839 61.5236 74.2761 68.7949 66.7308C68.3757 64.2962 67.9082 62.0713 67.4729 60.717Z" fill="white"/>
<path d="M32.7771 69.9073H22.6199V71.6002H32.7771V69.9073Z" fill="#FF4A4A" fill-opacity="0.37"/>
<path d="M34.6311 50.3023C29.0044 51.6888 24.9899 55.1713 24.9899 59.2342V72.9867H25.796V59.2342C25.796 55.5744 29.4558 52.4305 34.615 51.1246C34.6473 50.8666 34.6473 50.5925 34.6311 50.3023Z" fill="#3F3F3F"/>
<path d="M45.3688 50.3023C45.3688 50.5925 45.3688 50.8666 45.3849 51.1246C50.5602 52.4305 54.2039 55.5744 54.2039 59.2342V61.7654H55.0101V59.2503C55.0101 55.1713 50.9955 51.6888 45.3688 50.3023Z" fill="#3F3F3F"/>
<path d="M25.4091 74.2765C26.8961 74.2765 28.1016 73.071 28.1016 71.584C28.1016 70.097 26.8961 68.8916 25.4091 68.8916C23.9221 68.8916 22.7167 70.097 22.7167 71.584C22.7167 73.071 23.9221 74.2765 25.4091 74.2765Z" fill="#5E5E5E"/>
<path d="M25.4091 73.9379C26.7091 73.9379 27.763 72.884 27.763 71.584C27.763 70.284 26.7091 69.2301 25.4091 69.2301C24.109 69.2301 23.0552 70.284 23.0552 71.584C23.0552 72.884 24.109 73.9379 25.4091 73.9379Z" fill="#828282"/>
<path d="M25.4092 73.2446C26.3263 73.2446 27.0698 72.5012 27.0698 71.584C27.0698 70.6669 26.3263 69.9234 25.4092 69.9234C24.492 69.9234 23.7485 70.6669 23.7485 71.584C23.7485 72.5012 24.492 73.2446 25.4092 73.2446Z" fill="#5E5E5E"/>
<path d="M25.4091 72.7771C26.068 72.7771 26.6022 72.2429 26.6022 71.584C26.6022 70.9251 26.068 70.391 25.4091 70.391C24.7502 70.391 24.2161 70.9251 24.2161 71.584C24.2161 72.2429 24.7502 72.7771 25.4091 72.7771Z" fill="#828282"/>
<path d="M56.3321 74.0508C55.397 74.0508 54.1556 74.0347 53.0915 73.4704C51.7533 72.761 51.0601 71.3583 51.0601 69.3269V65.8444H51.705V69.3269C51.705 71.1326 52.2531 72.3096 53.3817 72.9061C54.3491 73.422 55.5421 73.422 56.4289 73.422H56.5256V74.0669H56.4289C56.3966 74.0508 56.3644 74.0508 56.3321 74.0508Z" fill="#69696B"/>
<path d="M57.2189 73.7283C57.2189 74.0992 56.9126 74.4055 56.5418 74.4055C56.171 74.4055 55.8646 74.0992 55.8646 73.7283C55.8646 73.3575 56.171 73.0512 56.5418 73.0512C56.8965 73.0351 57.2189 73.3414 57.2189 73.7283Z" fill="#69696B"/>
<path d="M52.8496 74.0347C52.8174 74.0347 52.7851 74.0347 52.7529 74.0347H52.6561V73.3898H52.7529C53.6235 73.3898 54.8327 73.3898 55.8 72.8738C56.9286 72.2773 57.4768 71.1004 57.4768 69.2946V65.8122H58.1217V69.2946C58.1217 71.3422 57.4445 72.7287 56.0902 73.4381C55.0261 74.0185 53.7847 74.0347 52.8496 74.0347Z" fill="#8D8D8E"/>
<path d="M51.979 73.7122C51.979 74.083 52.2853 74.3894 52.6562 74.3894C53.027 74.3894 53.3333 74.083 53.3333 73.7122C53.3333 73.3414 53.027 73.0351 52.6562 73.0351C52.2853 73.0189 51.979 73.3253 51.979 73.7122Z" fill="#8D8D8E"/>
<path d="M57.7993 66.2313C57.5736 66.2313 57.3963 66.054 57.3963 65.8283V64.7642C57.3963 63.2164 56.1387 61.9589 54.5909 61.9589C53.0432 61.9589 51.7856 63.2164 51.7856 64.7642V65.8283C51.7856 66.054 51.6083 66.2313 51.3826 66.2313C51.1568 66.2313 50.9795 66.054 50.9795 65.8283V64.7642C50.9795 62.7811 52.5917 61.1527 54.5909 61.1527C56.5901 61.1527 58.2024 62.765 58.2024 64.7642V65.8283C58.2024 66.0379 58.025 66.2313 57.7993 66.2313Z" fill="#3F3F3F"/>
<path d="M46.2716 45.4817H33.7283C35.6791 51.3825 33.8895 54.075 33.8895 54.075H46.1104C46.1104 54.075 44.3208 51.3825 46.2716 45.4817Z" fill="#E2A379"/>
<path d="M54.2362 28.2467C54.2362 13.3495 47.8678 9.93149 40 9.93149C32.1483 9.93149 25.7638 13.3495 25.7638 28.2467C25.7638 33.293 26.7634 37.2431 28.2628 40.2902C31.5518 46.9972 37.243 49.335 40 49.335C42.7569 49.335 48.4482 46.9972 51.7372 40.2902C53.2366 37.2431 54.2362 33.293 54.2362 28.2467Z" fill="#F4B382"/>
<path d="M43.9822 42.112C43.9822 42.499 42.2088 43.5308 40 43.5308C37.7912 43.5308 36.0177 42.4829 36.0177 42.112C36.0177 41.8702 37.2753 41.2092 38.1298 41.0802C38.6618 40.9996 40 41.5155 40 41.5155C40 41.5155 41.322 41.0157 41.8379 41.0802C42.7086 41.1931 43.9822 42.112 43.9822 42.112Z" fill="#E5A173"/>
<path d="M43.9822 42.1121C43.9822 42.499 42.2088 43.9662 40 43.9662C37.7912 43.9662 36.0177 42.499 36.0177 42.1121C36.0177 42.1121 37.63 42.3055 40 42.3055C42.37 42.3055 43.9822 42.1121 43.9822 42.1121Z" fill="#D89364"/>
<path d="M27.4728 38.4845C26.1185 38.7102 25.1511 38.5006 24.3934 34.0185C23.6356 29.5365 24.6674 28.9399 26.0217 28.7142L27.4728 38.4845Z" fill="#F4B382"/>
<path d="M52.5433 38.4845C53.8976 38.7102 54.8489 38.5006 55.6227 34.0185C56.3966 29.5365 55.3487 28.9399 53.9944 28.7142L52.5433 38.4845Z" fill="#F4B382"/>
<path d="M54.2362 28.2467C54.2362 13.3495 49.3511 9.52841 40 9.52841C30.6489 9.52841 25.7638 13.3495 25.7638 28.2467C25.7638 28.2467 28.3918 22.7489 30.3265 19.6856C32.2612 16.6223 36.453 16.7352 36.453 16.7352H44.3531C44.3531 16.7352 48.7062 16.7836 49.9153 19.6856L54.2362 28.2467Z" fill="#141414"/>
<path d="M26.6828 22.7005C26.0056 24.4579 25.7799 26.6344 25.7799 28.7465C25.7799 28.7465 27.1987 28.4401 27.1987 29.1657L27.6501 33.6155L28.2789 33.3091C28.2467 29.601 29.0689 19.8468 29.0689 19.8468L26.6828 22.7005Z" fill="#141414"/>
<path d="M53.3333 22.7005C54.0104 24.4579 54.2361 26.6344 54.2361 28.7465C54.2361 28.7465 52.8174 28.4401 52.8174 29.1656L52.3659 33.6155L51.7371 33.3091C51.7694 29.601 50.9471 20.137 50.9471 20.137L53.3333 22.7005Z" fill="#141414"/>
</g>
<defs>
<clipPath id="clip0_8_265">
<rect width="80" height="80" fill="white"/>
</clipPath>
</defs>
</svg>
