<svg width="80" height="80" viewBox="0 0 80 80" fill="none" xmlns="http://www.w3.org/2000/svg">
<g clip-path="url(#clip0_8_260)">
<path d="M0 40C0 50.6087 4.21427 60.7828 11.7157 68.2843C19.2172 75.7857 29.3913 80 40 80C50.6087 80 60.7828 75.7857 68.2843 68.2843C75.7857 60.7828 80 50.6087 80 40C80 29.3913 75.7857 19.2172 68.2843 11.7157C60.7828 4.21427 50.6087 0 40 0C29.3913 0 19.2172 4.21427 11.7157 11.7157C4.21427 19.2172 0 29.3913 0 40Z" fill="#FF4A4A"/>
<path d="M48.74 28.035H55.095L47.225 20.6V26.6C47.225 26.985 47.38 27.35 47.665 27.62C47.9572 27.8905 48.3418 28.0389 48.74 28.035ZM42.88 30.06C43.1073 30.0654 43.3274 29.9806 43.4923 29.8241C43.6572 29.6676 43.7535 29.4522 43.76 29.225C43.7535 28.9978 43.6572 28.7824 43.4923 28.6259C43.3274 28.4694 43.1073 28.3846 42.88 28.39H32.91C32.797 28.3867 32.6845 28.4056 32.5789 28.4458C32.4733 28.486 32.3766 28.5466 32.2945 28.6241C32.2123 28.7017 32.1462 28.7946 32.0999 28.8977C32.0537 29.0008 32.0282 29.1121 32.025 29.225C32.025 29.685 32.425 30.06 32.91 30.06H42.88ZM42.88 38.445C43.1073 38.4504 43.3274 38.3656 43.4923 38.2091C43.6572 38.0526 43.7535 37.8372 43.76 37.61C43.7535 37.3828 43.6572 37.1674 43.4923 37.0109C43.3274 36.8544 43.1073 36.7696 42.88 36.775H32.91C32.797 36.7717 32.6845 36.7906 32.5789 36.8308C32.4733 36.871 32.3766 36.9316 32.2945 37.0091C32.2123 37.0867 32.1462 37.1796 32.0999 37.2827C32.0537 37.3858 32.0282 37.4971 32.025 37.61C32.025 38.075 32.425 38.445 32.91 38.445H42.88ZM36.65 46.83C36.7629 46.8333 36.8754 46.8144 36.9811 46.7742C37.0867 46.734 37.1833 46.6734 37.2655 46.5959C37.3477 46.5184 37.4138 46.4254 37.4601 46.3223C37.5063 46.2192 37.5318 46.108 37.535 45.995C37.5318 45.8821 37.5063 45.7708 37.4601 45.6677C37.4138 45.5646 37.3477 45.4717 37.2655 45.3941C37.1833 45.3166 37.0867 45.256 36.9811 45.2158C36.8754 45.1756 36.7629 45.1567 36.65 45.16H32.91C32.6827 45.1546 32.4626 45.2394 32.2977 45.3959C32.1328 45.5524 32.0365 45.7678 32.03 45.995C32.03 46.455 32.425 46.83 32.91 46.83H36.65ZM27.865 31.17C28.3878 31.1728 28.8909 30.9708 29.2665 30.6073C29.6422 30.2438 29.8606 29.7476 29.875 29.225C29.8593 28.7033 29.6404 28.2084 29.2648 27.8459C28.8893 27.4835 28.3869 27.2822 27.865 27.285C27.505 27.2734 27.1481 27.3553 26.8291 27.5227C26.5102 27.69 26.24 27.9372 26.045 28.24C25.8594 28.535 25.761 28.8765 25.761 29.225C25.761 29.5735 25.8594 29.915 26.045 30.21C26.2394 30.5138 26.5093 30.7619 26.8283 30.9302C27.1473 31.0984 27.5045 31.1811 27.865 31.17ZM27.865 39.555C28.3946 39.5684 28.908 39.3712 29.2923 39.0065C29.6766 38.6419 29.9006 38.1396 29.915 37.61C29.8993 37.0813 29.6748 36.5803 29.2906 36.2167C28.9064 35.8531 28.3938 35.6565 27.865 35.67C27.3362 35.6565 26.8236 35.8531 26.4394 36.2167C26.0552 36.5803 25.8307 37.0813 25.815 37.61C25.8294 38.1396 26.0533 38.6419 26.4377 39.0065C26.822 39.3712 27.3354 39.5684 27.865 39.555ZM27.865 47.94C28.3946 47.9534 28.908 47.7562 29.2923 47.3915C29.6766 47.0269 29.9006 46.5246 29.915 45.995C29.8993 45.4663 29.6748 44.9653 29.2906 44.6017C28.9064 44.2381 28.3938 44.0415 27.865 44.055C27.3362 44.0415 26.8236 44.2381 26.4394 44.6017C26.0552 44.9653 25.8307 45.4663 25.815 45.995C25.8294 46.5246 26.0533 47.0269 26.4377 47.3915C26.822 47.7562 27.3354 47.9534 27.865 47.94ZM56.47 27.99L56.54 28.045V39.18C55.1275 38.7184 53.651 38.4822 52.165 38.48C44.715 38.48 38.68 44.195 38.68 51.235C38.68 55.085 40.49 58.535 43.345 60.87H23.395C22.7429 60.8861 22.1109 60.6431 21.6377 60.1942C21.1644 59.7453 20.8883 59.1271 20.87 58.475V21.525C20.87 20.2 22 19.13 23.4 19.13H47.1L47.17 19.185L48.115 20.085L55.53 27.09L56.47 27.99ZM51.425 40C57.735 40 62.855 44.84 62.855 50.805C62.855 56.775 57.735 61.61 51.425 61.61C45.115 61.61 40 56.775 40 50.81C40 44.835 45.115 40 51.425 40ZM58.71 54.8L55.95 52.055C56.5089 50.9268 56.7018 49.6522 56.502 48.4091C56.3021 47.166 55.7194 46.0162 54.835 45.12C54.306 44.5857 53.6737 44.1647 52.9768 43.8826C52.2798 43.6004 51.5327 43.4632 50.781 43.4791C50.0293 43.495 49.2886 43.6637 48.6042 43.9751C47.9198 44.2864 47.3059 44.7338 46.8 45.29C45.7541 46.4338 45.188 47.9359 45.2187 49.4855C45.2494 51.0351 45.8746 52.5135 46.965 53.615C48.915 55.55 51.84 55.765 54.01 54.29L56.7 56.975C57.28 57.545 58.2 57.525 58.75 56.925C59.0162 56.6338 59.1604 56.2515 59.153 55.857C59.1455 55.4626 58.987 55.086 58.71 54.805V54.8ZM48.38 52.085C47.6822 51.3793 47.2826 50.4322 47.264 49.44C47.2454 48.4478 47.6092 47.4864 48.28 46.755C48.6044 46.4002 48.9974 46.115 49.4353 45.9167C49.8732 45.7183 50.3469 45.611 50.8275 45.6012C51.3081 45.5914 51.7857 45.6793 52.2314 45.8595C52.677 46.0398 53.0814 46.3088 53.42 46.65C54.87 48.09 54.915 50.475 53.52 51.975C53.196 52.3301 52.8032 52.6157 52.3655 52.8145C51.9277 53.0133 51.4542 53.1211 50.9736 53.1314C50.4929 53.1417 50.0152 53.0542 49.5694 52.8743C49.1236 52.6945 48.7189 52.4259 48.38 52.085Z" fill="white"/>
</g>
<defs>
<clipPath id="clip0_8_260">
<rect width="80" height="80" fill="white"/>
</clipPath>
</defs>
</svg>
